<?xml version="1.0" encoding="UTF-8" standalone="no"?>
<!DOCTYPE svg PUBLIC "-//W3C//DTD SVG 1.1//EN" "http://www.w3.org/Graphics/SVG/1.1/DTD/svg11.dtd">
<svg version="1.1" xmlns="http://www.w3.org/2000/svg" xmlns:xlink="http://www.w3.org/1999/xlink" preserveAspectRatio="xMidYMid meet" viewBox="0 0 640 640" width="128" height="128"><defs><path d="M64 72.13L64 72.13L64 72.88L64 72.88L64 72.44L64 72.44L64 73L64 73L64 72L64 72L64 72.13ZM64 72.58L64 72.58L64 72.72L64 72.45L64 72.31L64 72.43L64 72.09L64 72.24L64 72.58Z" id="b2P8Mb2gnn"></path><path d="M0 0L640 0L640 640L0 640L0 0Z" id="bYb1CNO49"></path><path d="M359.38 622.03C336.57 644.96 299.49 645.07 276.56 622.26C216.68 562.71 78.59 425.37 18.71 365.83C-4.22 343.02 -4.32 305.94 18.49 283C79.46 221.69 221.09 79.28 282.06 17.97C304.87 -4.96 341.95 -5.07 364.89 17.74C424.76 77.29 562.86 214.63 622.73 274.17C645.67 296.98 645.77 334.06 622.96 357C561.98 418.31 420.36 560.72 359.38 622.03Z" id="d3wsidNNGH"></path><path d="" id="b3ALbrIVRI"></path><path d="M640 0L1.45 640" id="a16g5EWimP"></path><path d="M640 639.3L313 313" id="bCVlX2jyX"></path></defs><g><g><g><use xlink:href="#b2P8Mb2gnn" opacity="1" fill="#212e59" fill-opacity="1"></use></g><g><use xlink:href="#bYb1CNO49" opacity="1" fill="#2e3a62" fill-opacity="1"></use></g><g><use xlink:href="#d3wsidNNGH" opacity="1" fill="#ffffff" fill-opacity="1"></use></g><g><g><use xlink:href="#b3ALbrIVRI" opacity="1" fill-opacity="0" stroke="#ffffff" stroke-width="11" stroke-opacity="1"></use></g></g><g><use xlink:href="#a16g5EWimP" opacity="1" fill="#000000" fill-opacity="1"></use><g><use xlink:href="#a16g5EWimP" opacity="1" fill-opacity="0" stroke="#2e3a62" stroke-width="25" stroke-opacity="1"></use></g></g><g><g><use xlink:href="#bCVlX2jyX" opacity="1" fill-opacity="0" stroke="#2e3a62" stroke-width="25" stroke-opacity="1"></use></g></g></g></g></svg>